Coordinates
version=1
nRows=12
nColumns=24
inDegrees=yes

Units are S.I. units (second, meters, Newtons, ...)
Angles are in degrees.

endheader
time	pelvis_tilt	pelvis_list	pelvis_rotation	pelvis_tx	pelvis_ty	pelvis_tz	hip_flexion_r	hip_adduction_r	hip_rotation_r	knee_angle_r	ankle_angle_r	subtalar_angle_r	mtp_angle_r	hip_flexion_l	hip_adduction_l	hip_rotation_l	knee_angle_l	ankle_angle_l	subtalar_angle_l	mtp_angle_l	lumbar_extension	lumbar_bending	lumbar_rotation
      1.28400000	     -3.44351801	      3.49775355	     -6.39653621	      0.27603435	      1.06462388	      0.33819124	     18.57482098	     -6.76609078	     -3.00335126	    -71.68045684	     -2.24010863	     -6.02023509	      6.40516273	     14.74149243	      5.15773972	     -0.01086410	    -17.16419118	      8.56678096	      0.15815966	      0.41384449	    -10.17787795	     -4.70040437	      1.76078530
      1.28816667	     -3.41014670	      3.37660908	     -6.34836277	      0.28112820	      1.06576422	      0.33806985	     19.04528306	     -6.60542525	     -3.09795107	    -71.48488559	     -1.88226627	     -5.96435824	      6.37364721	     14.18392149	      5.08226814	      0.08151095	    -16.74106117	      8.59769489	      0.17920479	      0.41707572	    -10.24743974	     -4.52448501	      1.57956371
      1.29233333	     -3.38351781	      3.26636804	     -6.29097955	      0.28620775	      1.06685296	      0.33794279	     19.51538261	     -6.45694808	     -3.19946772	    -71.24374156	     -1.51085134	     -5.84145276	      6.35320246	     13.63329260	      5.01762138	      0.17977413	    -16.31000089	      8.62045521	      0.20194487	      0.42161712	    -10.31288973	     -4.36296734	      1.39664865
      1.29650000	     -3.34971266	      3.14624815	     -6.22601487	      0.29127576	      1.06793434	      0.33780461	     19.96203727	     -6.29990627	     -3.31244788	    -70.94666024	     -1.13351236	     -5.66285365	      6.34727508	     13.07319112	      4.94257298	      0.28060186	    -15.87429347	      8.64642930	      0.23243147	      0.42655089	    -10.38358313	     -4.18310739	      1.23022879
      1.30066667	     -3.32902409	      3.03861295	     -6.14992119	      0.29632329	      1.06894508	      0.33766262	     20.41603395	     -6.15563183	     -3.43263488	    -70.60962970	     -0.73752864	     -5.45427786	      6.34535243	     12.52644059	      4.88121405	      0.40619671	    -15.42768908	      8.63531811	      0.22760816	      0.43475763	    -10.44157768	     -4.02042333	      1.00276824
      1.30483333	     -3.29708914	      2.90738913	     -6.06810680	      0.30136022	      1.06996931	      0.33750582	     20.83717096	     -5.98745088	     -3.56526809	    -70.20760916	     -0.35689864	     -5.17810756	      6.35761434	     11.97036741	      4.79323824	      0.51986090	    -14.99292729	      8.67155688	      0.26780994	      0.44225925	    -10.51361584	     -3.82403115	      0.85256563
      1.30900000	     -3.27874701	      2.79852440	     -5.98229840	      0.30638904	      1.07090523	      0.33735262	     21.27084016	     -5.84397954	     -3.69788987	    -69.77439173	      0.04316612	     -4.87052227	      6.37852375	     11.42918171	      4.72707568	      0.64339831	    -14.54908035	      8.68235679	      0.28771698	      0.44971963	    -10.56863650	     -3.65650871	      0.67004892
      1.31316667	     -3.24593528	      2.67416837	     -5.88584696	      0.31139895	      1.07184729	      0.33719302	     21.66922016	     -5.68573569	     -3.84527896	    -69.28257298	      0.44353343	     -4.53663035	      6.40802769	     10.87142967	      4.64462830	      0.77680230	    -14.10168136	      8.68909614	      0.30299413	      0.45871545	    -10.64262926	     -3.46858841	      0.47401839
      1.31733333	     -3.24865795	      2.55419278	     -5.78437512	      0.31639376	      1.07267668	      0.33704425	     22.09856467	     -5.52485161	     -3.99144717	    -68.75154677	      0.84754435	     -4.19035952	      6.43913203	     10.36119278	      4.55926051	      0.90438976	    -13.67083297	      8.68415491	      0.33373173	      0.46549695	    -10.68138997	     -3.29291138	      0.31691287
      1.32150000	     -3.20762355	      2.46653704	     -5.68620495	      0.32139384	      1.07351996	      0.33688027	     22.47791956	     -5.41376617	     -4.13959517	    -68.18980537	      1.25618547	     -3.80575832	      6.48666725	      9.78953550	      4.51663333	      1.05840501	    -13.19960312	      8.68439714	      0.30682822	      0.47645161	    -10.75134047	     -3.13795471	      0.08038479
      1.32566667	     -3.18987668	      2.35598114	     -5.57526852	      0.32638025	      1.07430692	      0.33672059	     22.86085794	     -5.27053937	     -4.29979643	    -67.56865872	      1.65946360	     -3.44437460	      6.55264985	      9.24879245	      4.44420191	      1.22245131	    -12.74091632	      8.64857788	      0.27670918	      0.49126209	    -10.80608860	     -2.95918755	     -0.13682964
      1.32983333	     -3.18505491	      2.24654560	     -5.46545609	      0.33136290	      1.07500556	      0.33655716	     23.24913367	     -5.12957496	     -4.46163480	    -66.90895444	      2.04472252	     -3.04776963	      6.60557096	      8.73259456	      4.36718981	      1.35560491	    -12.30753501	      8.68406139	      0.30393178	      0.50302405	    -10.84082807	     -2.78418291	     -0.28837501
